<?xml version="1.0" encoding="utf-8"?>
<!-- Generator: Adobe Illustrator 21.0.0, SVG Export Plug-In . SVG Version: 6.00 Build 0)  -->
<svg version="1.1" id="Layer_1" xmlns="http://www.w3.org/2000/svg" xmlns:xlink="http://www.w3.org/1999/xlink" x="0px" y="0px"
	 viewBox="0 0 79 37" style="enable-background:new 0 0 79 37;" xml:space="preserve">
<style type="text/css">
	.st0{fill:#D09A44;}
</style>
<g>
	<g>
		<path class="st0" d="M77.9,17.5L62.2,4.8c-0.4-0.3-0.9-0.4-1.3-0.2c-0.4,0.2-0.7,0.6-0.7,1.1v4.8H33.9C31,4.8,25,0.8,18.2,0.8
			C8.5,0.8,0.5,8.7,0.5,18.4s7.9,17.6,17.6,17.6c6.9,0,12.8-3.9,15.7-9.7h26.3v4.8c0,0.5,0.3,0.9,0.7,1.1c0.2,0.1,0.3,0.1,0.5,0.1
			c0.3,0,0.5-0.1,0.8-0.3l15.7-12.7c0.3-0.2,0.4-0.6,0.4-0.9C78.3,18.1,78.1,17.7,77.9,17.5z M18.2,33.6C9.8,33.6,3,26.8,3,18.4
			S9.8,3.3,18.2,3.3c8.4,0,15.2,6.8,15.2,15.2S26.6,33.6,18.2,33.6z M62.7,28.6v-3.4c0-0.7-0.5-1.2-1.2-1.2H34.9
			c0.6-1.7,0.9-3.6,0.9-5.5c0-1.9-0.3-3.8-0.9-5.5h26.5c0.7,0,1.2-0.5,1.2-1.2V8.3l12.5,10.2L62.7,28.6z"/>
		<path class="st0" d="M21.7,15.2c0,0.7,0.5,1.2,1.2,1.2c0.7,0,1.2-0.5,1.2-1.2c0-2.2-2-3.9-4.8-4.3V9c0-0.7-0.5-1.2-1.2-1.2
			C17.5,7.8,17,8.3,17,9v1.9c-2.7,0.4-4.8,2.2-4.8,4.3s2,3.9,4.8,4.3v3.9c-1.4-0.3-2.3-1.1-2.3-1.8c0-0.7-0.5-1.2-1.2-1.2
			c-0.7,0-1.2,0.5-1.2,1.2c0,2.2,2,3.9,4.8,4.3v2c0,0.7,0.5,1.2,1.2,1.2c0.7,0,1.2-0.5,1.2-1.2v-2c2.7-0.4,4.8-2.2,4.8-4.3
			c0-2.2-2-3.9-4.8-4.3v-3.9C20.8,13.7,21.7,14.5,21.7,15.2z M14.6,15.2c0-0.7,0.9-1.5,2.3-1.8V17C15.5,16.7,14.6,15.9,14.6,15.2z
			 M21.7,21.6c0,0.7-0.9,1.5-2.3,1.8v-3.7C20.8,20,21.7,20.8,21.7,21.6z"/>
	</g>
</g>
</svg>
