<?xml version="1.0" encoding="utf-8"?>
<!-- Generator: Adobe Illustrator 21.0.0, SVG Export Plug-In . SVG Version: 6.00 Build 0)  -->
<svg version="1.1" id="Layer_1" xmlns="http://www.w3.org/2000/svg" xmlns:xlink="http://www.w3.org/1999/xlink" x="0px" y="0px"
	 viewBox="0 0 33 31" style="enable-background:new 0 0 33 31;" xml:space="preserve">
<style type="text/css">
	.st0{fill:#42210B;}
</style>
<path class="st0" d="M23.7,1c-2.8,0-5.4,1.3-7.2,3.3C14.8,2.3,12.2,1,9.4,1C4.5,1,0.6,4.9,0.6,9.8c0,6,5.4,10.9,13.6,18.4l2.3,2.1
	l2.3-2.1c8.2-7.4,13.6-12.4,13.6-18.4C32.5,4.9,28.7,1,23.7,1z M16.7,25.8L16.6,26l-0.2-0.2C8.8,18.9,3.8,14.4,3.8,9.8
	c0-3.2,2.4-5.6,5.6-5.6c2.5,0,4.8,1.6,5.7,3.8h3c0.8-2.2,3.2-3.8,5.7-3.8c3.2,0,5.6,2.4,5.6,5.6C29.3,14.4,24.3,18.9,16.7,25.8z"/>
</svg>
