<?xml version="1.0" encoding="utf-8"?>
<!-- Generator: Adobe Illustrator 21.0.0, SVG Export Plug-In . SVG Version: 6.00 Build 0)  -->
<svg version="1.1" id="Layer_1" xmlns="http://www.w3.org/2000/svg" xmlns:xlink="http://www.w3.org/1999/xlink" x="0px" y="0px"
	 viewBox="0 0 37 35" style="enable-background:new 0 0 37 35;" xml:space="preserve">
<style type="text/css">
	.st0{fill:#42210B;}
</style>
<path class="st0" d="M36.7,17.8c0-2.5-1.9-3.8-4.6-3.8h-7.7c0.5-2.1,0.8-4.1,0.8-5.7c0-6.7-1.8-8-3.4-8c-1.1,0-1.8,0.1-2.9,0.8
	c-0.3,0.2-0.5,0.5-0.5,0.8L17.2,8c-1.1,2.9-3.7,5.5-6,7.3c-0.4-0.8-1.1-1.3-2.1-1.3H2.3c-1.3,0-2.3,1-2.3,2.3v16.1
	c0,1.3,1,2.3,2.3,2.3h6.9c1.2,0,2.2-0.9,2.3-2.1c0.6,0.2,1.2,0.5,1.8,0.8c1.2,0.6,2.5,1.2,4,1.2h11c2.3,0,4-1.8,4-3.4
	c0-0.3,0-0.6-0.1-0.8c1.5-0.5,2.4-1.8,2.4-3.1c0-0.7-0.2-1.3-0.4-1.8c0.8-0.6,1.8-1.6,1.8-2.8c0-0.6-0.3-1.4-0.8-1.9
	C36,20,36.7,18.9,36.7,17.8z M9.2,32.5H2.3V16.4h6.9V32.5z M32.6,20.1c-0.2,0.8,0.9,1.1,0.9,2.5c0,1.5-1.8,1.5-2,2.1
	c-0.3,0.8,0.5,1.1,0.5,2.5c0,0.1,0,0.2,0,0.2c-0.2,1.1-2,1.2-2.3,1.7c-0.3,0.5,0.1,0.8,0.1,2.1c0,0.7-0.8,1.1-1.7,1.1h-11
	c-0.8,0-1.9-0.5-2.9-1c-0.9-0.5-1.8-0.9-2.8-1.1V18.1c2.8-2.1,6.5-5.4,8-9.4c0-0.1,0-0.2,0.1-0.2l1.1-5.7c0.4-0.2,0.7-0.2,1.3-0.2
	C22.1,2.6,23,4,23,8.3c0,1.7-0.3,3.6-0.9,5.7h-0.3c-0.6,0-1.1,0.5-1.1,1.1s0.5,1.1,1.1,1.1h10.3c1.1,0,2.2,0.5,2.2,1.5
	C34.4,19.3,32.8,19.4,32.6,20.1z"/>
</svg>
